<?xml version="1.0" encoding="UTF-8"?>
<svg id="Layer_1" xmlns="http://www.w3.org/2000/svg" version="1.1" viewBox="0 0 492 443.64">
  <!-- Generator: Adobe Illustrator 29.8.1, SVG Export Plug-In . SVG Version: 2.1.1 Build 2)  -->
  <defs>
    <style>
      .st0 {
        fill: #fff;
      }

      .st1 {
        fill: #008d9a;
      }

      .st2 {
        fill: #edb92b;
      }
    </style>
  </defs>
  <path class="st1" d="M223.73,0h-58.41C74.02,0,0,74.02,0,165.31v165.31h223.69c91.3,0,165.31-74.02,165.31-165.31S314.98,0,223.69,0"/>
  <path class="st2" d="M341.89,221.64h39.19c61.26,0,110.92,49.7,110.92,111v111h-150.08c-61.26,0-110.92-49.7-110.92-111s49.66-111,110.92-111"/>
  <g>
    <path class="st0" d="M88.38,139.21h-13.04c-1.84,0-3.3-1.51-3.3-3.35v-29.37c0-1.84,1.46-3.3,3.3-3.3h12.5c7.19,0,11.36,3.73,11.36,8.93,0,3.62-2.27,6.17-5.73,7.73,4.71,1.08,7.68,4.49,7.68,9.03,0,5.35-4.38,10.33-12.77,10.33ZM88.11,109.08h-9.47v8.17h9.47c3.03,0,4.44-2.06,4.44-4.17,0-2.38-1.62-4-4.44-4ZM88.87,123.14h-10.22v10.17h10.28c3.41,0,5.63-2,5.63-5.19,0-2.7-2.06-4.98-5.68-4.98Z"/>
    <path class="st0" d="M110.45,104.54c2.06,0,3.68,1.62,3.68,3.68s-1.62,3.68-3.68,3.68-3.68-1.62-3.68-3.68,1.62-3.68,3.68-3.68ZM107.21,118.55c0-1.79,1.46-3.25,3.25-3.25s3.25,1.46,3.25,3.25v17.85c0,1.79-1.46,3.25-3.25,3.25s-3.25-1.46-3.25-3.25v-17.85Z"/>
    <path class="st0" d="M131.39,149.76c-3.25,0-6.38-.92-8.49-2-1.08-.54-1.73-1.51-1.73-2.6,0-1.68,1.14-2.38,2.6-2.38,1.03,0,1.95.43,3.14.92,1.14.43,2.54.92,4.6.92,4.71,0,6.33-2.11,6.33-6.49v-3.08c-1.62,2.65-4.38,3.84-7.19,3.84-7.14,0-10.98-5.52-10.98-11.9s3.79-11.9,10.98-11.9c3.19,0,5.84,1.46,7.41,3.84v-.32c0-1.84,1.24-3.3,3.14-3.3s3.14,1.46,3.14,3.25v19.2c0,7.74-4.11,12.01-12.93,12.01ZM132.04,133.37c3.68,0,5.79-2.98,5.79-6.38s-2.06-6.38-5.79-6.38-5.9,2.76-5.9,6.38,2.16,6.38,5.9,6.38Z"/>
    <path class="st0" d="M178.56,102.97h2.16c1.51,0,2.7,1.19,2.7,2.7s-1.19,2.7-2.7,2.7h-1.51c-2,0-3.46,1.03-3.46,3.41v3.95h4.44c1.51,0,2.7,1.19,2.7,2.7s-1.19,2.7-2.7,2.7h-4.44v15.25c0,1.79-1.46,3.25-3.25,3.25s-3.25-1.46-3.25-3.25v-15.25h-2.76c-1.51,0-2.7-1.19-2.7-2.7s1.19-2.7,2.7-2.7h2.76v-3.3c0-5.52,2.92-9.47,9.3-9.47Z"/>
    <path class="st0" d="M201.55,136.29c-1.51,2.43-4,3.57-6.98,3.57-5.19,0-8.44-3.14-8.44-7.41,0-4.92,3.79-7.41,8.76-7.41,2.49,0,4.98.81,6.54,2.49v-1.73c0-3.62-1.3-5.19-5.52-5.19-3.08,0-4.98,1.19-6.44,1.19-1.57,0-2.76-1.14-2.76-2.65,0-3.52,7.25-4.06,9.79-4.06,7.36,0,11.41,3.57,11.41,10.28v11.03c0,1.79-1.3,3.25-3.19,3.25s-3.19-1.46-3.19-3.25v-.11ZM196.9,129.36c-2.65,0-4.33,1.19-4.33,3.08s1.84,3.08,4.33,3.08,4.54-1.35,4.54-3.08-2-3.08-4.54-3.08Z"/>
    <path class="st0" d="M226.54,120.93c-3.62,0-5.08,2.76-5.08,5.63v9.84c0,1.79-1.46,3.25-3.25,3.25s-3.25-1.46-3.25-3.25v-17.8c0-2.06,1.41-3.3,3.25-3.3s3.25,1.24,3.25,3.3v.43c1.3-2.38,3.62-3.95,6.98-3.95,6.06,0,9.52,4.65,9.52,11.14v10.17c0,1.79-1.46,3.25-3.25,3.25s-3.25-1.46-3.25-3.25v-9.84c0-3.14-1.57-5.63-4.92-5.63Z"/>
    <path class="st0" d="M261.05,122.17c-.87,0-1.84-.6-2.87-1.03-1.46-.6-2.65-.87-4-.87-2,0-3.35.49-3.35,1.78s1.03,1.84,4.49,2.76c5.14,1.41,8.82,2.98,8.82,7.79,0,4.33-3.62,7.25-9.74,7.25-3.35,0-6.49-.92-8.55-2.43-1.03-.76-1.41-1.73-1.41-2.76,0-1.24,1.08-2.11,2.38-2.11,1.08,0,1.79.43,2.54.92,1.14.7,2.92,1.62,5.19,1.62,2.05,0,3.41-.7,3.41-1.95s-1.24-1.84-4.44-2.71c-6.87-1.84-8.87-4.54-8.87-8.33s3.3-7.03,9.68-7.03c2.06,0,4.06.38,5.9,1.24,1.89.87,3.3,2,3.3,3.46,0,1.35-.7,2.38-2.49,2.38Z"/>
    <path class="st0" d="M82.38,204.77c-7.3,0-12.39-5.57-12.39-12.39s5.08-12.39,12.39-12.39,12.39,5.57,12.39,12.39-5.08,12.39-12.39,12.39ZM82.38,185.62c-3.73,0-6,3.14-6,6.76s2.27,6.76,6,6.76,6-3.14,6-6.76-2.27-6.76-6-6.76Z"/>
    <path class="st0" d="M112.35,167.88h2.16c1.51,0,2.7,1.19,2.7,2.7s-1.19,2.7-2.7,2.7h-1.51c-2,0-3.46,1.03-3.46,3.41v3.95h4.44c1.51,0,2.71,1.19,2.71,2.7s-1.19,2.7-2.71,2.7h-4.44v15.25c0,1.79-1.46,3.25-3.25,3.25s-3.25-1.46-3.25-3.25v-15.25h-2.76c-1.51,0-2.7-1.19-2.7-2.7s1.19-2.7,2.7-2.7h2.76v-3.3c0-5.52,2.92-9.47,9.3-9.47Z"/>
    <path class="st0" d="M150.43,180c6.06,0,9.52,4.65,9.52,11.14v10.17c0,1.79-1.46,3.25-3.25,3.25s-3.25-1.46-3.25-3.25v-9.84c0-3.14-1.57-5.63-4.92-5.63-3.62,0-5.08,2.76-5.08,5.63v9.84c0,1.79-1.46,3.25-3.25,3.25s-3.25-1.46-3.25-3.25v-30.4c0-1.78,1.46-3.25,3.25-3.25s3.25,1.46,3.25,3.25v13.04c1.3-2.38,3.62-3.95,6.98-3.95Z"/>
    <path class="st0" d="M186.78,194.49h-14.39c.32,2.81,2.11,5.14,5.84,5.14,2.06,0,3.73-.59,4.98-1.57.76-.59,1.41-1.08,2.38-1.08,1.62,0,2.6,1.03,2.6,2.38,0,1.51-1.19,2.54-2.33,3.25-1.78,1.14-4.17,2.16-7.9,2.16-8.11,0-12.33-5.63-12.33-12.39,0-7.14,5.14-12.39,12.23-12.39s11.25,5.3,11.25,12.39c0,1.03-.65,2.11-2.33,2.11ZM177.85,185.19c-2.98,0-5.03,1.95-5.36,4.71h10.44c-.49-2.49-2.22-4.71-5.08-4.71Z"/>
    <path class="st0" d="M195.33,170.91c0-1.78,1.46-3.25,3.25-3.25s3.25,1.46,3.25,3.25v30.4c0,1.79-1.46,3.25-3.25,3.25s-3.25-1.46-3.25-3.25v-30.4Z"/>
    <path class="st0" d="M209.39,170.91c0-1.78,1.46-3.25,3.25-3.25s3.25,1.46,3.25,3.25v30.4c0,1.79-1.46,3.25-3.25,3.25s-3.25-1.46-3.25-3.25v-30.4Z"/>
    <path class="st0" d="M234.33,204.77c-7.3,0-12.39-5.57-12.39-12.39s5.08-12.39,12.39-12.39,12.39,5.57,12.39,12.39-5.08,12.39-12.39,12.39ZM234.33,185.62c-3.73,0-6,3.14-6,6.76s2.27,6.76,6,6.76,6-3.14,6-6.76-2.27-6.76-6-6.76Z"/>
    <path class="st0" d="M268.41,187.08c-.87,0-1.84-.6-2.87-1.03-1.46-.6-2.65-.87-4-.87-2,0-3.35.49-3.35,1.78s1.03,1.84,4.49,2.76c5.14,1.41,8.82,2.98,8.82,7.79,0,4.33-3.62,7.25-9.74,7.25-3.35,0-6.49-.92-8.55-2.43-1.03-.76-1.41-1.73-1.41-2.76,0-1.24,1.08-2.11,2.38-2.11,1.08,0,1.79.43,2.54.92,1.14.7,2.92,1.62,5.19,1.62,2.05,0,3.41-.7,3.41-1.95s-1.24-1.84-4.44-2.7c-6.87-1.84-8.87-4.54-8.87-8.33s3.3-7.03,9.68-7.03c2.06,0,4.06.38,5.9,1.24,1.89.87,3.3,2,3.3,3.46,0,1.35-.7,2.38-2.49,2.38Z"/>
    <path class="st0" d="M280.58,204.5c-2.06,0-3.68-1.68-3.68-3.73s1.62-3.68,3.68-3.68,3.73,1.62,3.73,3.68-1.68,3.73-3.73,3.73Z"/>
  </g>
  <g>
    <path class="st0" d="M322.78,301.03c.53.58.82,1.16.82,1.98,0,1.31-.92,2.23-2.27,2.23-.77,0-1.26-.19-1.79-.58-.77-.58-2.08-1.55-4.16-1.55-3.73,0-5.66,2.9-5.66,6.14s1.93,6.15,5.66,6.15c2.08,0,3.39-.97,4.16-1.55.53-.39,1.02-.58,1.79-.58,1.35,0,2.27.92,2.27,2.23,0,.82-.29,1.4-.82,1.98-1.4,1.55-4.02,2.86-7.45,2.86-7.02,0-11.42-4.89-11.42-11.08s4.4-11.08,11.42-11.08c3.44,0,6.05,1.31,7.45,2.85Z"/>
    <path class="st0" d="M338.51,320.34c-6.53,0-11.08-4.98-11.08-11.08s4.55-11.08,11.08-11.08,11.08,4.98,11.08,11.08-4.55,11.08-11.08,11.08ZM338.51,303.21c-3.34,0-5.37,2.81-5.37,6.05s2.03,6.05,5.37,6.05,5.37-2.81,5.37-6.05-2.03-6.05-5.37-6.05Z"/>
    <path class="st0" d="M386.71,320.14c-1.6,0-2.9-1.31-2.9-2.9v-8.81c0-2.81-1.21-5.03-4.21-5.03-3.19,0-4.35,2.47-4.35,5.03v8.81c0,1.6-1.31,2.9-2.9,2.9s-2.95-1.31-2.95-2.9v-8.81c0-2.81-1.21-5.03-4.21-5.03-3.24,0-4.35,2.47-4.35,5.03v8.81c0,1.6-1.31,2.9-2.9,2.9s-2.9-1.31-2.9-2.9v-15.92c0-1.6,1.11-2.95,2.9-2.95,1.69,0,2.9,1.36,2.9,2.95v.39c1.21-2.23,3.44-3.53,6.05-3.53,3.1,0,5.37,1.4,6.77,3.63,1.5-2.18,4.16-3.63,7.45-3.63,5.85,0,8.56,3.97,8.56,9.77v9.29c0,1.6-1.35,2.9-2.95,2.9Z"/>
    <path class="st0" d="M413.66,311.14h-12.87c.29,2.52,1.89,4.6,5.23,4.6,1.84,0,3.34-.53,4.45-1.4.68-.53,1.26-.97,2.13-.97,1.45,0,2.32.92,2.32,2.13,0,1.35-1.06,2.27-2.08,2.9-1.6,1.02-3.73,1.94-7.06,1.94-7.26,0-11.03-5.03-11.03-11.08,0-6.39,4.6-11.08,10.93-11.08s10.06,4.74,10.06,11.08c0,.92-.58,1.89-2.08,1.89ZM405.68,302.82c-2.66,0-4.5,1.74-4.79,4.21h9.34c-.44-2.23-1.98-4.21-4.55-4.21Z"/>
    <path class="st0" d="M319.49,362.59c-.77,0-1.65-.53-2.56-.92-1.31-.53-2.37-.77-3.58-.77-1.79,0-3,.44-3,1.6s.92,1.64,4.02,2.47c4.6,1.26,7.89,2.66,7.89,6.97,0,3.87-3.24,6.48-8.71,6.48-3,0-5.81-.82-7.65-2.18-.92-.68-1.26-1.55-1.26-2.47,0-1.11.97-1.89,2.13-1.89.97,0,1.6.39,2.27.82,1.02.63,2.61,1.45,4.64,1.45,1.84,0,3.05-.63,3.05-1.74s-1.11-1.65-3.97-2.42c-6.15-1.64-7.94-4.06-7.94-7.45s2.95-6.29,8.66-6.29c1.84,0,3.63.34,5.27,1.11,1.69.77,2.95,1.79,2.95,3.1,0,1.21-.63,2.13-2.23,2.13Z"/>
    <path class="st0" d="M340.64,375.21c-1.35,2.18-3.58,3.19-6.24,3.19-4.64,0-7.55-2.81-7.55-6.63,0-4.4,3.39-6.63,7.84-6.63,2.23,0,4.45.73,5.85,2.23v-1.55c0-3.24-1.16-4.64-4.94-4.64-2.76,0-4.45,1.06-5.76,1.06-1.4,0-2.47-1.02-2.47-2.37,0-3.14,6.48-3.63,8.76-3.63,6.58,0,10.21,3.19,10.21,9.19v9.87c0,1.6-1.16,2.9-2.85,2.9s-2.85-1.31-2.85-2.9v-.1ZM336.48,369.02c-2.37,0-3.87,1.06-3.87,2.76s1.65,2.76,3.87,2.76,4.06-1.21,4.06-2.76-1.79-2.76-4.06-2.76Z"/>
    <path class="st0" d="M356.08,386.92c-.39.24-.82.34-1.31.34-1.4,0-2.61-1.11-2.61-2.42,0-1.02.48-1.64,1.4-2.37,2.03-1.6,3.24-2.81,4.31-5.23l-6.92-17.08c-.14-.34-.24-.68-.24-1.06,0-1.45,1.06-2.66,2.61-2.66,1.26,0,2.03.58,2.42,1.55l5.42,13.93,4.55-13.93c.29-.97,1.02-1.55,2.42-1.55,1.55,0,2.56,1.21,2.56,2.66,0,.39-.1.82-.19,1.06-1.21,3.68-3.19,9.19-5.42,14.71-2.27,5.61-5.03,9.68-9,12.05Z"/>
    <path class="st0" d="M401.42,356.25c5.42,0,8.52,4.16,8.52,9.97v9.1c0,1.6-1.31,2.9-2.9,2.9s-2.9-1.31-2.9-2.9v-8.81c0-2.81-1.4-5.03-4.4-5.03-3.24,0-4.55,2.47-4.55,5.03v8.81c0,1.6-1.31,2.9-2.9,2.9s-2.9-1.31-2.9-2.9v-27.19c0-1.6,1.31-2.9,2.9-2.9s2.9,1.31,2.9,2.9v11.66c1.16-2.13,3.24-3.53,6.24-3.53Z"/>
    <path class="st0" d="M419.38,346.81c1.84,0,3.29,1.45,3.29,3.29s-1.45,3.29-3.29,3.29-3.29-1.45-3.29-3.29,1.45-3.29,3.29-3.29ZM416.47,359.34c0-1.6,1.31-2.9,2.9-2.9s2.9,1.31,2.9,2.9v15.97c0,1.6-1.31,2.9-2.9,2.9s-2.9-1.31-2.9-2.9v-15.97Z"/>
    <path class="st0" d="M432.88,378.17c-1.84,0-3.34-1.5-3.34-3.34s1.5-3.29,3.34-3.29,3.34,1.45,3.34,3.29-1.5,3.34-3.34,3.34ZM434.28,366.94c-.1.77-.63,1.35-1.4,1.35s-1.31-.58-1.4-1.35l-1.5-7.55v-11.27c0-1.6,1.31-2.9,2.9-2.9s2.9,1.31,2.9,2.9v11.27l-1.5,7.55Z"/>
  </g>
</svg>